<?xml version="1.0" encoding="UTF-8" standalone="no"?>
<!-- Created with Inkscape (http://www.inkscape.org/) -->

<svg
   xmlns:dc="http://purl.org/dc/elements/1.1/"
   xmlns:cc="http://creativecommons.org/ns#"
   xmlns:rdf="http://www.w3.org/1999/02/22-rdf-syntax-ns#"
   xmlns:svg="http://www.w3.org/2000/svg"
   xmlns="http://www.w3.org/2000/svg"
   xmlns:sodipodi="http://sodipodi.sourceforge.net/DTD/sodipodi-0.dtd"
   xmlns:inkscape="http://www.inkscape.org/namespaces/inkscape"
   width="210mm"
   height="297mm"
   viewBox="0 0 744.09448819 1052.3622047"
   id="svg5751"
   version="1.1"
   inkscape:version="0.91 r13725"
   sodipodi:docname="fullstckoverview.svg"
   inkscape:export-filename="/home/compsci/a4_conover_code/fullstack/images/fullstckoverview.png"
   inkscape:export-xdpi="90"
   inkscape:export-ydpi="90">
  <defs
     id="defs5753">
    <inkscape:perspective
       sodipodi:type="inkscape:persp3d"
       inkscape:vp_x="2.8571429 : 394.75253 : 1"
       inkscape:vp_y="0 : 1000 : 0"
       inkscape:vp_z="742.66592 : 489.03824 : 1"
       inkscape:persp3d-origin="372.04724 : 350.7874 : 1"
       id="perspective6319" />
  </defs>
  <sodipodi:namedview
     id="base"
     pagecolor="#ffffff"
     bordercolor="#666666"
     borderopacity="1.0"
     inkscape:pageopacity="0.0"
     inkscape:pageshadow="2"
     inkscape:zoom="0.49497475"
     inkscape:cx="-120.55503"
     inkscape:cy="650.4283"
     inkscape:document-units="px"
     inkscape:current-layer="layer1"
     showgrid="false"
     inkscape:window-width="1920"
     inkscape:window-height="1148"
     inkscape:window-x="0"
     inkscape:window-y="0"
     inkscape:window-maximized="1"
     inkscape:snap-nodes="false"
     inkscape:snap-others="false" />
  <metadata
     id="metadata5756">
    <rdf:RDF>
      <cc:Work
         rdf:about="">
        <dc:format>image/svg+xml</dc:format>
        <dc:type
           rdf:resource="http://purl.org/dc/dcmitype/StillImage" />
        <dc:title></dc:title>
      </cc:Work>
    </rdf:RDF>
  </metadata>
  <g
     inkscape:label="Layer 1"
     inkscape:groupmode="layer"
     id="layer1">
    <g
       sodipodi:type="inkscape:box3d"
       id="g6321"
       style="opacity:1;fill:#f6ffb9;fill-opacity:1;stroke:none;stroke-width:20;stroke-miterlimit:4;stroke-dasharray:none;stroke-opacity:1"
       inkscape:perspectiveID="#perspective6319"
       inkscape:corner0="5.3520258 : 1.5749117 : 0 : 1"
       inkscape:corner7="2.2804835 : 0.81720357 : 1.163845 : 1">
      <path
         sodipodi:type="inkscape:box3dside"
         id="path6333"
         style="fill:#e9e9ff;fill-rule:evenodd;stroke:none;stroke-width:1px;stroke-linecap:butt;stroke-linejoin:round;stroke-opacity:1"
         inkscape:box3dsidetype="11"
         d="m 166.53915,439.31422 113.1231,-150.86728 0,170.48878 -113.1231,81.19292 z"
         points="279.66225,288.44694 279.66225,458.93572 166.53915,540.12864 166.53915,439.31422 " />
      <path
         sodipodi:type="inkscape:box3dside"
         id="path6323"
         style="fill:#353564;fill-rule:evenodd;stroke:none;stroke-width:1px;stroke-linecap:butt;stroke-linejoin:round;stroke-opacity:1"
         inkscape:box3dsidetype="6"
         d="m 60.978773,416.59263 0,119.28606 105.560377,4.24995 0,-100.81442 z"
         points="60.978773,535.87869 166.53915,540.12864 166.53915,439.31422 60.978773,416.59263 " />
      <path
         sodipodi:type="inkscape:box3dside"
         id="path6325"
         style="fill:#4d4d9f;fill-rule:evenodd;stroke:none;stroke-width:1px;stroke-linecap:butt;stroke-linejoin:round;stroke-opacity:1"
         inkscape:box3dsidetype="5"
         d="M 60.978773,416.59263 115.39851,190.92648 279.66225,288.44694 166.53915,439.31422 Z"
         points="115.39851,190.92648 279.66225,288.44694 166.53915,439.31422 60.978773,416.59263 " />
      <path
         sodipodi:type="inkscape:box3dside"
         id="path6331"
         style="fill:#afafde;fill-rule:evenodd;stroke:none;stroke-width:1px;stroke-linecap:butt;stroke-linejoin:round;stroke-opacity:1"
         inkscape:box3dsidetype="13"
         d="m 60.978773,535.87869 54.419737,-113.97768 164.26374,37.03471 -113.1231,81.19292 z"
         points="115.39851,421.90101 279.66225,458.93572 166.53915,540.12864 60.978773,535.87869 " />
      <path
         sodipodi:type="inkscape:box3dside"
         id="path6329"
         style="fill:#d7d7ff;fill-rule:evenodd;stroke:none;stroke-width:1px;stroke-linecap:butt;stroke-linejoin:round;stroke-opacity:1"
         inkscape:box3dsidetype="14"
         d="m 115.39851,190.92648 0,230.97453 164.26374,37.03471 0,-170.48878 z"
         points="115.39851,421.90101 279.66225,458.93572 279.66225,288.44694 115.39851,190.92648 " />
      <path
         sodipodi:type="inkscape:box3dside"
         id="path6327"
         style="fill:#8686bf;fill-rule:evenodd;stroke:none;stroke-width:1px;stroke-linecap:butt;stroke-linejoin:round;stroke-opacity:1"
         inkscape:box3dsidetype="3"
         d="m 60.978773,416.59263 54.419737,-225.66615 0,230.97453 -54.419737,113.97768 z"
         points="115.39851,190.92648 115.39851,421.90101 60.978773,535.87869 60.978773,416.59263 " />
    </g>
    <g
       sodipodi:type="inkscape:box3d"
       id="g6335"
       style="opacity:1;fill:#f6ffb9;fill-opacity:1;stroke:none;stroke-width:20;stroke-miterlimit:4;stroke-dasharray:none;stroke-opacity:1"
       inkscape:perspectiveID="#perspective6319"
       inkscape:corner0="0.36737073 : -0.083723028 : 0 : 1"
       inkscape:corner7="-0.099536356 : -0.19643929 : 0.25 : 1">
      <path
         sodipodi:type="inkscape:box3dside"
         id="path6345"
         style="fill:#afafde;fill-rule:evenodd;stroke:none;stroke-width:1px;stroke-linecap:butt;stroke-linejoin:round;stroke-opacity:1"
         inkscape:box3dsidetype="13"
         d="m 272.85714,833.42478 140,91.16338 71.66867,-78.50404 -139.04945,-54.40933 z"
         points="412.85714,924.58816 484.52581,846.08412 345.47636,791.67479 272.85714,833.42478 " />
      <path
         sodipodi:type="inkscape:box3dside"
         id="path6337"
         style="fill:#353564;fill-rule:evenodd;stroke:none;stroke-width:1px;stroke-linecap:butt;stroke-linejoin:round;stroke-opacity:1"
         inkscape:box3dsidetype="6"
         d="m 272.85714,750.99193 0,82.43285 72.61922,-41.74999 0,-69.69104 z"
         points="272.85714,833.42478 345.47636,791.67479 345.47636,721.98375 272.85714,750.99193 " />
      <path
         sodipodi:type="inkscape:box3dside"
         id="path6347"
         style="fill:#e9e9ff;fill-rule:evenodd;stroke:none;stroke-width:1px;stroke-linecap:butt;stroke-linejoin:round;stroke-opacity:1"
         inkscape:box3dsidetype="11"
         d="m 345.47636,721.98375 139.04945,26.12573 0,97.97464 -139.04945,-54.40933 z"
         points="484.52581,748.10948 484.52581,846.08412 345.47636,791.67479 345.47636,721.98375 " />
      <path
         sodipodi:type="inkscape:box3dside"
         id="path6339"
         style="fill:#4d4d9f;fill-rule:evenodd;stroke:none;stroke-width:1px;stroke-linecap:butt;stroke-linejoin:round;stroke-opacity:1"
         inkscape:box3dsidetype="5"
         d="m 272.85714,750.99193 140,48.42043 71.66867,-51.30288 -139.04945,-26.12573 z"
         points="412.85714,799.41236 484.52581,748.10948 345.47636,721.98375 272.85714,750.99193 " />
      <path
         sodipodi:type="inkscape:box3dside"
         id="path6343"
         style="fill:#d7d7ff;fill-rule:evenodd;stroke:none;stroke-width:1px;stroke-linecap:butt;stroke-linejoin:round;stroke-opacity:1"
         inkscape:box3dsidetype="14"
         d="m 412.85714,799.41236 0,125.1758 71.66867,-78.50404 0,-97.97464 z"
         points="412.85714,924.58816 484.52581,846.08412 484.52581,748.10948 412.85714,799.41236 " />
      <path
         sodipodi:type="inkscape:box3dside"
         id="path6341"
         style="fill:#8686bf;fill-rule:evenodd;stroke:none;stroke-width:1px;stroke-linecap:butt;stroke-linejoin:round;stroke-opacity:1"
         inkscape:box3dsidetype="3"
         d="m 272.85714,750.99193 140,48.42043 0,125.1758 -140,-91.16338 z"
         points="412.85714,799.41236 412.85714,924.58816 272.85714,833.42478 272.85714,750.99193 " />
    </g>
    <text
       xml:space="preserve"
       style="font-style:normal;font-weight:normal;font-size:30px;line-height:125%;font-family:sans-serif;letter-spacing:0px;word-spacing:0px;fill:#000000;fill-opacity:1;stroke:none;stroke-width:1px;stroke-linecap:butt;stroke-linejoin:miter;stroke-opacity:1"
       x="71.673676"
       y="48.118546"
       id="text6363"
       sodipodi:linespacing="125%"><tspan
         sodipodi:role="line"
         id="tspan6365"
         x="71.673676"
         y="48.118546">SERVER --  a remote computer</tspan></text>
    <text
       xml:space="preserve"
       style="font-style:normal;font-weight:normal;font-size:30px;line-height:125%;font-family:sans-serif;letter-spacing:0px;word-spacing:0px;fill:#000000;fill-opacity:1;stroke:none;stroke-width:1px;stroke-linecap:butt;stroke-linejoin:miter;stroke-opacity:1"
       x="112.85714"
       y="992.36218"
       id="text6367"
       sodipodi:linespacing="125%"><tspan
         sodipodi:role="line"
         id="tspan6369"
         x="112.85714"
         y="992.36218">CLIENT -- the users computer</tspan></text>
    <path
       style="opacity:1;fill:#f653b9;fill-opacity:1;stroke:none;stroke-width:20;stroke-miterlimit:4;stroke-dasharray:none;stroke-opacity:1"
       id="path6379"
       d="m 206.90843,296.29621 c 5.13278,-2.128 9.82874,-5.08483 14.77815,-7.57295 3.9428,-1.82697 8.08449,-3.14569 12.30485,-4.14858 2.63059,-0.60539 5.36891,-0.83246 7.96054,-1.6104 1.48988,-0.44723 2.92508,-1.06449 4.41439,-1.5136 4.42356,-1.30622 8.96996,-2.17945 13.38338,-3.5067 3.69812,-1.32726 7.57433,-2.05057 11.30543,-3.24287 4.67197,-1.52649 9.36572,-2.95435 14.13189,-4.16166 5.1722,-1.532 10.48172,-2.32354 15.67698,-3.77135 6.24063,-1.46807 12.53157,-2.73674 18.73598,-4.35816 4.32029,-0.86656 8.2232,-2.93956 12.50089,-3.94259 4.38345,-1.27018 8.78329,-2.34679 13.29654,-3.03343 4.70528,-0.60502 9.3745,-1.38755 14.104,-1.8188 1.37119,-0.27116 2.78071,-0.0311 4.15629,-0.21031 1.70231,-0.22179 3.35694,-0.72875 5.05209,-0.99988 10.97955,-1.75615 -4.28295,0.84227 9.55495,-1.55514 11.28558,-1.66506 22.66804,-2.57418 33.98267,-4.01103 6.76457,-0.85903 13.49984,-1.93492 20.2504,-2.89785 14.79956,-2.12881 29.60038,-4.34188 44.48637,-5.78554 4.59394,-0.3679 2.42227,-0.12391 6.51946,-0.69134 0,0 -16.81544,12.51659 -16.81544,12.51659 l 0,0 c -4.02455,0.37599 -1.90685,0.20265 -6.35438,0.50419 -14.61535,1.23774 -29.16574,3.12526 -43.66874,5.30606 -0.6987,0.0999 -19.6563,2.81389 -20.35742,2.90467 -11.47241,1.48545 -23.01752,2.49487 -34.41736,4.50448 -6.40419,1.20476 -12.80037,2.66052 -19.32649,2.97274 -4.68397,0.48125 -9.32318,1.26293 -13.98606,1.90864 -4.47464,0.80417 -8.84219,2.03291 -13.222,3.24166 -4.15185,1.2811 -8.15927,3.03094 -12.44972,3.84825 -6.20094,1.46159 -12.4477,2.73269 -18.6171,4.32369 -5.24359,1.3858 -10.60038,2.26041 -15.79612,3.83863 -4.74618,1.28148 -9.42433,2.77211 -14.11656,4.23498 -3.79715,1.04122 -7.58231,2.10708 -11.35597,3.2313 -4.44016,1.11475 -8.8871,2.21371 -13.27631,3.518 -4.09619,1.33672 -8.26398,2.23552 -12.48504,3.07961 -4.10348,1.17174 -8.16981,2.48486 -11.96468,4.47354 -4.92626,2.61566 -9.83594,5.24407 -14.84113,7.70547 0,0 16.45527,-13.28032 16.45527,-13.28032 z"
       inkscape:connector-curvature="0" />
    <path
       style="opacity:1;fill:#f653b9;fill-opacity:1;stroke:none;stroke-width:20;stroke-miterlimit:4;stroke-dasharray:none;stroke-opacity:1"
       id="path6385"
       d="m 416.78082,719.34845 c 4.57015,-2.53305 24.00467,-13.31819 -13.68211,7.90331 -0.88419,0.49789 1.72705,-1.06665 2.57149,-1.62934 2.37032,-1.57946 4.51407,-3.32943 6.6385,-5.21802 3.03348,-3.01396 6.22349,-5.85601 9.57463,-8.51033 7.46981,-5.19811 15.91693,-9.37853 23.71405,-13.70237 1.83542,-1.01782 3.89176,-1.68016 5.79417,-2.56539 4.13006,-1.14275 7.76518,-3.4194 11.68665,-5.05885 7.59815,-3.56461 23.56676,-13.03052 -8.0133,5.07844 3.66619,-2.50093 7.4109,-4.88163 11.09133,-7.36207 4.27892,-2.8107 7.95429,-6.39175 12.00184,-9.50094 0,0 19.5667,-7.7547 19.5667,-7.7547 l 0,0 c -4.2169,2.93571 -7.81686,6.60623 -12.01066,9.57665 -3.62769,2.51668 -7.38157,4.83415 -10.96623,7.40296 -9.30147,5.41787 -18.3939,11.24498 -28.22308,15.6708 -3.84886,1.79142 -7.66719,3.62257 -11.66811,5.06309 -0.89783,0.38989 -2.86596,1.23944 -3.74527,1.64215 -0.66798,0.30593 -2.62248,1.32028 -1.99268,0.94194 28.93193,-17.38069 18.78054,-10.81246 12.34413,-7.26832 -3.37728,2.6279 -6.73674,5.30181 -9.71277,8.39014 -9.11231,8.64622 -20.40397,14.35582 -31.51109,20.13273 0,0 16.54181,-13.23188 16.54181,-13.23188 z"
       inkscape:connector-curvature="0" />
    <path
       style="opacity:1;fill:#f653b9;fill-opacity:1;stroke:none;stroke-width:20;stroke-miterlimit:4;stroke-dasharray:none;stroke-opacity:1"
       id="path6387"
       d="m 223.12288,324.71666 c 7.94902,0.16206 15.90104,0.1345 23.85138,0.1202 8.09298,-0.0188 16.18593,-0.01 24.27892,-0.01 4.72969,-0.0488 9.50558,0.1262 14.21075,-0.50006 2.44751,-0.32577 4.78346,-0.96165 7.17784,-1.54127 9.04889,-1.86753 18.12031,-3.62176 27.2384,-5.11736 6.95374,-0.80821 13.88075,-1.2834 20.75158,-2.6634 5.13921,-1.18277 10.27059,-2.16626 15.5242,-2.68509 4.26273,-0.40017 8.54614,-0.44639 12.82403,-0.47998 4.67701,0.0184 9.35382,0.0459 14.03089,0.0536 4.4897,-0.0211 8.97935,-0.005 13.46906,-0.0143 3.96893,-6.6e-4 7.93784,-0.008 11.90678,-0.0113 3.31247,0.26266 6.51793,-0.55814 9.77517,-0.99868 3.16028,-1.1729 6.6134,-0.99954 9.74815,-2.15922 3.54508,-1.25591 7.03208,-2.5388 10.72256,-3.30658 3.65842,-0.50796 7.32208,-0.65209 10.97574,-1.20997 2.42397,-0.33885 1.22226,-0.18369 3.60492,-0.46696 0,0 -16.95046,12.63982 -16.95046,12.63982 l 0,0 c -2.3491,0.30747 -1.1607,0.14659 -3.5651,0.48342 -3.62351,0.48117 -7.30458,0.51299 -10.8732,1.36578 -3.61432,0.94305 -7.07194,2.34938 -10.6599,3.38525 -3.31288,0.69233 -6.66328,1.20657 -9.96391,1.9619 -3.28847,0.49217 -6.56624,0.939 -9.9049,0.72256 -3.95846,-0.003 -7.91688,-0.0103 -11.87534,-0.0121 -4.46985,-0.0115 -8.93965,0.002 -13.40945,-0.032 -4.70645,-0.005 -9.41284,-0.007 -14.11918,0.035 -4.2047,0.0346 -8.41352,0.12834 -12.59823,0.57624 -5.19095,0.61743 -10.25688,1.80135 -15.38536,2.78434 -6.83619,1.19744 -13.75158,1.50911 -20.61667,2.49819 -9.11956,1.47567 -18.18903,3.24975 -27.20661,5.25675 -7.14412,1.53226 -14.33738,1.9528 -21.64173,1.64851 -8.08399,4e-5 -16.16794,0.009 -24.25192,-0.01 -8.06067,-0.0146 -16.12284,-0.039 -24.18225,0.12019 0,0 17.11384,-12.43394 17.11384,-12.43394 z"
       inkscape:connector-curvature="0" />
    <text
       xml:space="preserve"
       style="font-style:normal;font-weight:normal;font-size:30px;line-height:125%;font-family:sans-serif;letter-spacing:0px;word-spacing:0px;fill:#000000;fill-opacity:1;stroke:none;stroke-width:1px;stroke-linecap:butt;stroke-linejoin:miter;stroke-opacity:1"
       x="470.63379"
       y="253.6472"
       id="text6389"
       sodipodi:linespacing="125%"><tspan
         sodipodi:role="line"
         id="tspan6391"
         x="470.63379"
         y="253.6472">MySQL database</tspan></text>
    <text
       xml:space="preserve"
       style="font-style:normal;font-weight:normal;font-size:30px;line-height:125%;font-family:sans-serif;letter-spacing:0px;word-spacing:0px;fill:#000000;fill-opacity:1;stroke:none;stroke-width:1px;stroke-linecap:butt;stroke-linejoin:miter;stroke-opacity:1"
       x="452.85715"
       y="319.18814"
       id="text6393"
       sodipodi:linespacing="125%"><tspan
         sodipodi:role="line"
         id="tspan6395"
         x="452.85715"
         y="319.18814">PHP prog lang</tspan></text>
    <text
       xml:space="preserve"
       style="font-style:normal;font-weight:normal;font-size:30px;line-height:125%;font-family:sans-serif;letter-spacing:0px;word-spacing:0px;fill:#000000;fill-opacity:1;stroke:none;stroke-width:1px;stroke-linecap:butt;stroke-linejoin:miter;stroke-opacity:1"
       x="118.80633"
       y="184.68919"
       id="text6397"
       sodipodi:linespacing="125%"><tspan
         sodipodi:role="line"
         id="tspan6399"
         x="118.80633"
         y="184.68919">the backend</tspan></text>
    <path
       style="opacity:1;fill:#f653b9;fill-opacity:1;stroke:none;stroke-width:20;stroke-miterlimit:4;stroke-dasharray:none;stroke-opacity:1"
       id="path6401"
       d="m 308.68386,731.95007 c -2.26953,-5.06582 -3.57358,-10.40602 -4.47075,-15.8592 -0.70138,-4.48636 -0.73354,-9.03245 -0.77889,-13.56115 -0.0386,-4.13942 -0.003,-8.27903 0.0185,-12.41846 0.0764,-4.02191 -0.23504,-8.05578 0.26569,-12.05282 0.8259,-4.40476 2.44485,-8.60682 3.9794,-12.80175 1.83688,-4.29156 4.09695,-8.38301 6.29116,-12.49803 2.56266,-4.74664 5.50847,-9.26885 8.5156,-13.74189 2.59462,-4.06662 5.46456,-7.8908 8.8428,-11.33239 6.86581,-6.74482 16.30873,-10.66281 24.39008,-15.34308 1.99867,-1.15752 1.30178,-0.78712 3.48406,-1.65368 3.33512,-1.52612 6.73115,-2.75908 10.2928,-3.63951 0,0 -16.73056,12.84775 -16.73056,12.84775 l 0,0 c -3.47365,1.0345 -6.80761,2.40849 -10.10241,3.91703 -6.50649,3.32405 -16.66351,9.36897 12.99513,-7.72165 3.73707,-2.15347 -2.60984,1.567 -3.36418,2.1562 -0.52887,0.41308 -0.97886,0.91825 -1.46828,1.37737 -3.46847,3.30868 -6.61636,6.84314 -9.0738,10.99311 -3.05681,4.36541 -5.97567,8.83279 -8.58716,13.48153 -2.04217,4.13273 -4.42745,8.08733 -6.38869,12.26381 -1.52536,4.08551 -3.1311,8.18171 -4.11534,12.4344 -0.85951,3.83784 -0.22683,7.83768 -0.44234,11.7484 0.002,4.13495 -0.006,8.26988 -0.0325,12.40475 0.0123,4.44389 0.0472,8.90077 0.58278,13.31864 0.73937,5.25006 1.87301,10.43858 4.30498,15.19935 0,0 -18.40808,10.48127 -18.40808,10.48127 z"
       inkscape:connector-curvature="0" />
    <path
       style="opacity:1;fill:#f653b9;fill-opacity:1;stroke:none;stroke-width:20;stroke-miterlimit:4;stroke-dasharray:none;stroke-opacity:1"
       id="path6403"
       d="m 508.53684,774.1828 c 5.42832,-0.78519 10.76152,-2.06721 16.1693,-2.97098 4.07747,-0.59903 8.19479,-0.73377 12.30841,-0.78921 3.99391,-0.41413 7.78391,-0.96876 11.42798,-2.71353 -1.08446,0.85463 4.52022,-2.35979 3.41449,-1.72473 -5.49227,3.15444 -10.98657,6.3054 -16.48971,9.44084 -1.02906,0.58631 2.01991,-1.23765 3.04397,-1.83264 6.51116,-3.78309 13.0326,-7.54843 19.5489,-11.32265 1.36404,-0.87298 3.01512,-0.92703 4.49637,-1.42455 1.27759,-0.42912 2.09517,-1.05267 3.23998,-1.77366 -5.37503,3.06863 -10.75005,6.13725 -16.12508,9.20588 3.8321,-2.57354 6.9951,-5.96385 10.63967,-8.78179 8.11292,-5.32881 0.33604,-0.26783 21.43997,-12.4936 5.47129,-3.16959 -10.94735,6.33107 -16.43906,9.46515 -0.54264,0.30969 1.06052,-0.66088 1.59077,-0.99132 0,0 19.67856,-7.68426 19.67856,-7.68426 l 0,0 c -7.82707,5.41094 -0.68278,0.53334 -21.2542,12.48419 -5.45238,3.16754 10.92954,-6.29242 16.3725,-9.47612 0.58214,-0.3405 -1.19242,0.63049 -1.78862,0.94573 -3.86712,2.58589 -7.01383,5.96817 -10.61546,8.87781 -7.25525,4.25337 -14.06058,9.45576 -21.86536,12.5887 -0.9925,0.3984 -2.04942,0.62001 -3.04554,1.00926 -1.21683,0.47549 -1.60894,0.73326 -2.7695,1.358 5.53599,-3.21182 11.05567,-6.45193 16.60798,-9.63546 1.03388,-0.5928 -2.01637,1.27215 -3.04819,1.86853 -7.70908,4.45576 -14.9954,9.56191 -23.20518,12.95807 -3.84045,1.34879 -7.86562,1.89222 -11.92419,2.10271 -4.03056,0.098 -8.06642,0.3095 -12.04723,0.98986 -5.42349,0.94586 -10.81836,2.06281 -16.21648,3.13791 0,0 16.85495,-12.81814 16.85495,-12.81814 z"
       inkscape:connector-curvature="0" />
    <text
       xml:space="preserve"
       style="font-style:normal;font-weight:normal;font-size:30px;line-height:125%;font-family:sans-serif;letter-spacing:0px;word-spacing:0px;fill:#000000;fill-opacity:1;stroke:none;stroke-width:1px;stroke-linecap:butt;stroke-linejoin:miter;stroke-opacity:1"
       x="367.1131"
       y="633.11499"
       id="text6405"
       sodipodi:linespacing="125%"><tspan
         sodipodi:role="line"
         id="tspan6407"
         x="367.1131"
         y="633.11499">HTML5</tspan></text>
    <text
       xml:space="preserve"
       style="font-style:normal;font-weight:normal;font-size:30px;line-height:125%;font-family:sans-serif;letter-spacing:0px;word-spacing:0px;fill:#000000;fill-opacity:1;stroke:none;stroke-width:1px;stroke-linecap:butt;stroke-linejoin:miter;stroke-opacity:1"
       x="493.66422"
       y="671.87201"
       id="text6409"
       sodipodi:linespacing="125%"><tspan
         sodipodi:role="line"
         id="tspan6411"
         x="493.66422"
         y="671.87201">CSS/CSS3</tspan></text>
    <text
       xml:space="preserve"
       style="font-style:normal;font-weight:normal;font-size:30px;line-height:125%;font-family:sans-serif;letter-spacing:0px;word-spacing:0px;fill:#000000;fill-opacity:1;stroke:none;stroke-width:1px;stroke-linecap:butt;stroke-linejoin:miter;stroke-opacity:1"
       x="590.90863"
       y="759.95319"
       id="text6413"
       sodipodi:linespacing="125%"><tspan
         sodipodi:role="line"
         id="tspan6415"
         x="590.90863"
         y="759.95319">JS</tspan></text>
    <text
       xml:space="preserve"
       style="font-style:normal;font-weight:normal;font-size:30px;line-height:125%;font-family:sans-serif;letter-spacing:0px;word-spacing:0px;fill:#000000;fill-opacity:1;stroke:none;stroke-width:1px;stroke-linecap:butt;stroke-linejoin:miter;stroke-opacity:1"
       x="317.22995"
       y="954.44708"
       id="text6417"
       sodipodi:linespacing="125%"><tspan
         sodipodi:role="line"
         id="tspan6419"
         x="317.22995"
         y="954.44708">the frontend</tspan></text>
    <path
       style="opacity:1;fill:#c5ecff;fill-opacity:1;stroke:none;stroke-width:20;stroke-miterlimit:4;stroke-dasharray:none;stroke-opacity:1"
       id="path6442"
       d="m 67.764209,534.66665 c 2.203343,0.58317 4.325264,1.33829 6.385135,2.31131 1.949693,0.8675 3.834312,1.79104 5.59031,3.00977 1.892331,1.47412 3.951822,2.70841 5.83702,4.1895 1.610089,1.45183 3.213747,2.8909 4.918821,4.22984 1.708572,1.23137 3.504963,2.3253 5.204183,3.57195 1.740196,1.20731 3.075882,2.79222 4.401002,4.41662 1.26971,1.7641 2.65941,3.42873 4.10968,5.04547 1.52666,1.76178 3.04133,3.54952 4.21901,5.56786 0.7542,1.99689 1.30712,4.04836 2.12178,6.02557 0.93964,2.76406 1.8998,5.51305 2.997,8.22011 1.02704,2.51616 2.47581,4.81315 4.10927,6.97295 1.32865,1.76217 2.62128,3.54858 4.04039,5.24001 1.33028,1.43417 2.57859,2.93183 3.74067,4.50491 1.5419,2.14951 3.32109,4.10818 5.12497,6.03709 1.5713,1.78538 2.9754,3.69618 4.34382,5.63714 1.2302,1.92752 2.35144,3.92053 3.65751,5.79829 1.16513,1.78112 2.56488,3.38275 3.89985,5.03315 1.46462,1.76273 2.74018,3.67022 4.12534,5.49486 3.18162,4.25913 6.38651,8.49324 9.76754,12.59725 2.71739,3.34005 5.7671,6.38692 8.58207,9.64065 0.84553,0.97732 2.75828,3.31998 3.59143,4.33481 4.63926,5.44338 9.28988,10.87071 13.73289,16.47698 3.71657,4.6347 7.28663,9.43952 11.49972,13.64901 1.7395,1.73802 2.78633,2.55946 4.6195,4.10363 2.51981,2.00282 5.28653,3.65083 7.98102,5.39738 2.23341,1.497 4.35711,3.15189 6.49392,4.78216 2.08802,1.56805 4.15505,3.14519 6.11422,4.87087 1.61363,1.57216 3.4698,2.84653 5.26455,4.1947 1.87165,1.38669 3.71554,2.80408 5.62163,4.14378 2.82834,2.21362 5.52492,4.58562 8.35714,6.79702 3.09915,2.36136 6.34954,4.50962 9.57608,6.68982 1.89992,1.28718 3.73062,2.66681 5.70884,3.83619 0.96743,0.56696 1.81973,1.32927 2.84337,1.80252 0.17961,0.083 1.17928,0.43934 1.34097,0.49775 1.68154,0.6163 3.36577,1.20071 5.00924,1.9191 2.00311,0.90584 3.98214,1.89627 5.88551,2.99978 1.41045,1.01821 2.84948,2.03489 4.12873,3.21763 1.11949,1.0796 2.16074,2.22945 3.14837,3.42915 0.91637,1.10921 1.73572,2.29068 2.66007,3.39422 0.71267,0.98899 1.49366,1.9069 2.37124,2.751 0,0 -6.36059,3.90721 -6.36059,3.90721 l 0,0 c -0.8794,-0.87503 -1.65991,-1.82813 -2.41074,-2.81539 -0.91964,-1.10805 -1.73386,-2.29349 -2.64771,-3.40521 -0.96999,-1.16801 -1.99797,-2.28546 -3.09505,-3.33612 -1.26498,-1.12104 -2.61126,-2.16882 -4.02074,-3.10054 -1.88079,-1.08997 -3.82141,-2.09516 -5.82943,-2.9292 -1.65107,-0.69116 -3.34751,-1.23838 -5.02127,-1.86811 -1.54724,-0.59231 -2.88158,-1.49814 -4.24125,-2.4358 -1.93861,-1.23409 -3.78259,-2.60342 -5.67495,-3.90571 -3.1659,-2.23968 -6.32816,-4.48413 -9.40881,-6.8411 -2.86971,-2.19178 -5.70321,-4.43043 -8.56623,-6.6299 -1.89543,-1.35851 -3.7305,-2.79328 -5.61228,-4.17023 -1.82321,-1.34924 -3.68328,-2.65227 -5.3183,-4.23504 -1.92493,-1.71886 -3.94773,-3.3099 -5.99972,-4.87536 -2.14693,-1.61313 -4.31811,-3.19843 -6.55665,-4.68266 -2.67238,-1.76827 -5.30855,-3.59982 -7.78451,-5.63803 -1.66338,-1.49022 -2.97133,-2.61081 -4.53825,-4.24724 -4.12356,-4.3065 -7.55058,-9.21511 -11.37161,-13.77745 -1.02224,-1.2466 -2.02642,-2.50823 -3.06672,-3.7398 -3.58505,-4.24424 -7.47087,-8.22752 -10.95083,-12.5616 -0.5303,-0.65267 -3.01331,-3.71566 -3.53846,-4.33323 -2.79005,-3.28111 -5.82862,-6.34539 -8.54391,-9.69221 -3.40343,-4.1079 -6.73337,-8.27518 -10.04794,-12.45459 -1.42413,-1.79088 -2.72072,-3.67752 -4.17964,-5.44049 -1.36675,-1.6483 -2.70249,-3.32081 -3.89753,-5.10039 -1.31254,-1.87184 -2.44393,-3.85709 -3.67048,-5.78546 -1.35398,-1.90742 -2.70568,-3.81846 -4.26128,-5.57125 -1.81267,-1.95505 -3.60455,-3.93918 -5.18877,-6.08697 -1.19047,-1.53891 -2.4467,-3.02073 -3.75922,-4.45709 -1.39613,-1.72047 -2.66407,-3.53549 -4.0043,-5.29891 -1.6683,-2.21538 -3.12331,-4.5783 -4.15495,-7.16315 -1.12742,-2.69055 -2.09849,-5.43074 -3.05014,-8.18673 -0.81923,-1.93969 -1.44247,-3.93256 -2.12448,-5.92142 -1.10038,-2.00208 -2.583747,-3.74652 -4.093859,-5.45115 -1.480148,-1.60957 -2.86738,-3.29497 -4.149878,-5.06705 -1.285678,-1.57559 -2.619973,-3.08735 -4.306334,-4.2548 -1.704719,-1.25313 -3.526451,-2.3255 -5.225502,-3.58552 -1.706039,-1.33177 -3.234847,-2.84707 -4.878655,-4.25238 -1.893017,-1.45742 -3.937739,-2.70132 -5.85524,-4.12724 -1.725924,-1.17977 -3.599866,-2.04955 -5.493881,-2.92496 -2.04493,-0.94055 -4.164827,-1.67352 -6.375282,-2.1225 0,0 6.15156,-4.26703 6.15156,-4.26703 z"
       inkscape:connector-curvature="0" />
    <text
       xml:space="preserve"
       style="font-style:normal;font-weight:normal;font-size:30px;line-height:125%;font-family:sans-serif;letter-spacing:0px;word-spacing:0px;fill:#000000;fill-opacity:1;stroke:none;stroke-width:1px;stroke-linecap:butt;stroke-linejoin:miter;stroke-opacity:1"
       x="16.162445"
       y="650.32153"
       id="text6444"
       sodipodi:linespacing="125%"><tspan
         sodipodi:role="line"
         id="tspan6446"
         x="16.162445"
         y="650.32153">the internet</tspan><tspan
         sodipodi:role="line"
         x="16.162445"
         y="687.82153"
         id="tspan6458">wired or wireless</tspan></text>
    <path
       style="opacity:1;fill:#7eacff;fill-opacity:1;stroke:none;stroke-width:20;stroke-miterlimit:4;stroke-dasharray:none;stroke-opacity:1"
       id="path6452"
       d="m 46.374268,542.36542 c 1.417058,3.28916 3.286925,6.3188 5.2268,9.31548 1.174633,1.65212 2.350335,3.48967 4.028242,4.69595 0.593417,0.42662 1.692397,0.90492 2.330162,1.2057 3.68429,2.04777 7.681162,3.40888 11.460071,5.24833 3.481875,1.56452 6.936818,3.20923 10.557796,4.43271 2.814336,0.7847 5.483385,1.94613 8.259255,2.83772 3.37762,1.0761 6.786099,2.02624 10.287281,2.59665 3.133465,0.3978 6.222115,1.02376 9.371495,1.30903 3.2806,0.22512 6.57161,0.22277 9.85831,0.24075 3.39644,0.01 6.79287,-0.0142 10.18928,-0.0266 2.60247,-0.0137 5.20497,-0.0104 7.80746,-0.0162 1.93561,0.003 3.91475,0.0473 5.82649,-0.32583 1.20125,-0.23445 2.35788,-0.65756 3.53937,-0.977 3.4949,-0.80027 6.85624,-1.93589 10.17698,-3.26573 0.47429,-0.26068 1.89215,-1.05167 1.42288,-0.78205 -3.77708,2.17009 -15.10812,8.68042 -11.34652,6.48361 5.75125,-3.35879 12.41103,-7.62332 18.87234,-10.47974 4.05492,-1.19386 7.9821,-2.78176 11.90021,-4.35798 1.84022,-0.68462 1.95961,-0.6676 3.70921,-1.56387 0.57992,-0.29708 2.27483,-1.27197 1.70997,-0.94716 -20.46805,11.76973 -12.26228,7.21122 -7.9103,4.27807 7.33495,-5.25365 15.35433,-9.49339 23.14505,-13.99988 3.02943,-1.64413 6.49959,-2.08375 9.79508,-2.95435 3.0586,-0.88121 6.26774,-1.24402 9.2649,-2.3082 3.47998,-1.11322 7.07904,-1.88448 10.69045,-2.43319 2.38796,-0.2722 4.79426,-0.71077 7.20493,-0.45196 0.45961,0.0493 3.22819,0.54712 3.67389,0.62596 4.2381,0.5648 8.39512,1.36351 12.50088,2.55586 5.08575,1.69749 10.27696,3.06814 15.49232,4.30347 4.03411,1.2629 8.03002,2.69159 12.16697,3.58353 3.64653,0.69427 7.36998,0.77527 11.07032,0.82957 3.19652,0.27178 6.23373,-0.39467 9.25547,-1.35895 1.59706,-0.59905 3.19308,-1.11522 4.69809,-1.93059 0.51533,-0.27919 2.02519,-1.18089 1.51571,-0.89117 -11.62715,6.61175 -14.81897,8.95941 -9.61483,5.26391 4.08639,-3.0013 7.89679,-6.30528 11.44006,-9.92598 3.87959,-3.93762 7.23683,-8.33521 10.84521,-12.5107 3.73758,-4.22155 7.77213,-8.12339 12.30118,-11.48149 4.40614,-3.13967 8.90433,-6.14805 13.40574,-9.14883 5.79794,-3.76281 11.66274,-7.59504 17.97767,-10.40274 1.85008,-0.82257 3.86248,-1.40097 5.77883,-2.04488 4.25907,-1.51928 8.76571,-1.82333 13.24294,-1.99944 4.94423,-0.43579 9.83043,0.41712 14.67812,1.29952 5.48406,1.58172 11.01835,2.95183 16.55923,4.31664 8.18732,1.66746 16.42045,3.08935 24.68443,4.3164 12.87371,2.03092 25.90577,2.60439 38.91256,3.01249 9.96669,0.11626 19.94788,0.60618 29.91179,0.0874 6.82348,-0.35524 8.85163,-0.7124 15.64279,-1.52234 17.43138,-2.27013 34.51632,-6.6103 51.54316,-10.8819 22.90757,-5.38987 45.27921,-12.69542 67.75306,-19.60893 16.1622,-5.25633 32.47547,-10.10725 48.46504,-15.8799 4.36569,-1.73903 8.61074,-3.7329 13.06159,-5.23294 4.23828,-1.18149 8.65365,-1.24758 13.01973,-1.36034 7.88498,0.14725 15.56397,2.15189 23.3314,3.32535 12.56395,2.05419 25.31245,2.37234 38.01163,2.69696 15.03042,0.60034 30.18014,-0.0268 44.81781,-3.77298 2.7246,-0.6973 5.38528,-1.62406 8.07792,-2.43608 1.03185,-0.4335 12.87101,-5.13731 13.74127,-6.52815 1.21535,-1.94236 -4.98387,4.95911 -6.1817,3.00589 -1.20672,-1.96775 3.59668,-2.90223 5.27049,-4.49174 4.51291,-4.28561 5.83517,-6.31647 9.72879,-11.22454 7.56728,-10.7304 15.36834,-21.45029 20.97054,-33.38634 1.03627,-2.20787 1.89963,-4.49282 2.84945,-6.73924 3.44032,-8.24561 5.94185,-16.84353 7.34987,-25.66724 0.80716,-5.05822 0.9143,-7.30782 1.36381,-12.41261 0.68394,-10.09118 0.68052,-20.20988 0.49161,-30.31693 -0.19009,-5.23309 -0.008,-10.47365 -0.34754,-15.69905 -0.57924,-7.67275 -1.12158,-15.34879 -1.57449,-23.03013 -0.21609,-3.65277 -0.21353,-7.36358 -1.12381,-10.92758 -0.9556,-3.14479 -1.96789,-6.2647 -2.80457,-9.44487 -1.03817,-3.45962 -1.82488,-6.97606 -2.19535,-10.5692 -0.34692,-3.659 -1.53979,-7.1635 -2.6398,-10.64922 -1.20445,-3.59588 -2.86349,-7.02661 -4.48119,-10.4522 -1.69493,-4.2475 -3.67837,-8.31549 -6.063,-12.21853 -4.89183,-7.72959 -10.89516,-14.65049 -16.90695,-21.51227 -6.15825,-6.68688 -12.32694,-13.3785 -19.15456,-19.39816 -4.71923,-4.16077 -6.6729,-5.53718 -11.69509,-9.41756 -9.71728,-6.97081 -20.9207,-11.71708 -32.52913,-14.51117 -1.89357,-0.45577 -3.81571,-0.78343 -5.72356,-1.17514 -7.08843,-1.24981 -14.26395,-1.92142 -21.44559,-1.36584 -0.70649,0.16741 -1.42438,0.29246 -2.11948,0.50222 -0.79947,0.24126 -3.06064,1.17515 -3.80145,1.51957 -0.61525,0.28604 -2.40147,1.26251 -1.81521,0.92097 26.92189,-15.68389 11.71512,-6.69606 8.94426,-5.05574 -2.15216,1.1886 -4.05188,2.79898 -6.19673,3.99665 -4.77854,2.66831 -9.51029,5.43064 -14.4047,7.87995 -0.39791,0.19912 -0.9003,0.0922 -1.33486,-0.003 -0.36686,-0.0807 -0.6695,-0.34085 -1.00425,-0.51128 -0.23965,-0.28735 -0.53056,-0.53877 -0.71895,-0.86205 -0.64677,-1.10982 -0.77196,-2.57839 -1.09293,-3.79598 -0.49,-1.85874 -0.39057,-1.44091 -1.12345,-3.30032 -0.85688,-1.41405 -1.4839,-2.68622 -2.7848,-3.7904 -5.21441,-4.42591 -14.20978,-6.26527 -20.57457,-8.00975 -21.80236,-4.80517 -44.10812,-6.30719 -66.34817,-7.38977 -12.30014,-0.21415 -24.65616,-1.09288 -36.95713,-0.41732 -6.1187,0.56353 -11.70866,3.41831 -17.09418,6.18879 -1.37356,0.7991 -5.52463,3.14173 -4.12068,2.39731 2.56854,-1.36192 4.97624,-3.03229 7.61592,-4.25061 1.91922,-0.88579 -3.6145,2.1933 -5.44577,3.249 -10.13943,5.84525 -20.118,11.53174 -30.51788,16.81379 -13.03213,6.61945 -26.63147,11.87778 -40.45426,16.56672 -8.35739,2.49414 -16.78323,4.80527 -25.33779,6.52523 -1.43838,0.28919 -2.86965,0.6365 -4.32686,0.80714 -1.20922,0.14159 -2.43349,0.0846 -3.65024,0.12695 -1.16219,-0.30593 -2.38843,-0.42955 -3.48658,-0.91777 -4.79182,-2.13037 -8.98877,-6.86163 -12.87654,-10.22289 -6.30849,-5.45416 -6.44054,-5.40424 -13.28913,-10.71905 -17.85855,-12.84725 -38.16556,-22.00095 -59.05197,-28.72519 -4.79217,-1.54281 -9.6608,-2.8372 -14.4912,-4.2558 -22.18026,-5.98479 -45.02172,-8.66162 -67.90746,-9.84607 -7.54669,0.22122 -15.39877,-0.0559 -22.70957,2.14599 -3.81563,1.55203 -7.62992,3.1079 -11.48341,4.56332 -7.21507,2.40556 -14.45953,4.74316 -21.78378,6.79928 -5.10492,1.3622 -10.21235,3.22629 -15.53817,3.41466 -3.91627,-0.72481 -7.55067,-2.58987 -11.00419,-4.51716 -2.93471,-1.68955 -6.0861,-2.92295 -9.2679,-4.05393 -0.94146,-0.21488 -2.57183,-0.62632 -3.5225,-0.67453 -3.71507,-0.18838 -8.782,1.09956 -12.30789,1.986 -12.87686,3.51431 -25.84058,6.69716 -38.72142,10.19973 -9.12519,2.37217 -18.39871,4.3425 -26.79845,8.7573 3.5461,-1.99808 7.04755,-4.07756 10.6383,-5.99423 0.55197,-0.29463 -0.96641,0.8038 -1.50641,1.11981 -4.69182,2.74563 -9.31436,5.63084 -14.17819,8.05876 -1.35507,0.67642 -4.71056,-1.58155 -5.6446,-2.16885 -5.28397,-4.25527 -10.61292,-8.44166 -16.31409,-12.12577 -3.49581,-2.2629 -7.34888,-3.70896 -11.469855,-4.20978 -1.326388,-0.18138 -2.616277,-0.0972 -3.86699,0.40151 -0.381918,0.15228 -1.461279,0.7535 -1.104439,0.54925 12.712594,-7.27638 15.173024,-9.04008 10.433364,-5.74573 -2.30513,2.00349 -4.330782,4.31305 -6.254557,6.67881 -2.248402,2.68976 -3.475208,5.97502 -4.962199,9.10045 -1.69942,3.40964 -3.552801,6.73794 -5.606241,9.94635 -2.030329,2.80632 -3.607684,5.89491 -5.356715,8.87722 -1.380588,2.44506 -2.506807,5.02427 -3.877136,7.4728 -3.585061,5.1121 -9.283772,6.46483 -15.41469,9.47686 -0.505445,0.24832 -4.377694,-0.60089 -4.954415,-0.71774 -4.2013,-0.91754 -8.485619,-1.29301 -12.770949,-1.52409 -2.134532,-0.14174 -4.264872,-0.13992 -6.333358,0.48447 -4.569737,1.37944 -14.777629,7.89605 6.680713,-4.2805 -3.815791,2.33414 -7.389559,5.02168 -10.948356,7.72253 -3.459502,2.45964 -6.242406,5.60555 -8.695815,9.03508 -2.618679,4.0275 -5.389943,7.95405 -8.299867,11.77582 -2.46069,3.41232 -4.89375,6.84512 -7.2547364,10.32758 -2.0647044,2.97447 -4.1635954,5.95487 -5.7282802,9.22844 -1.2841711,3.40567 -3.38214941,6.38661 -4.9581513,9.65484 -1.6082354,3.42517 -2.9750766,6.94223 -4.3316712,10.47163 -1.209909,3.39351 -3.1945017,6.32199 -5.4945769,9.05452 -2.825528,3.20921 -5.890214,6.19497 -8.925967,9.20223 -0.891914,0.81153 -1.752433,1.65897 -2.675742,2.43459 -1.293896,1.08693 -7.874039,6.18635 -8.846051,6.95833 -5.264042,4.18077 -10.449538,8.45931 -15.619963,12.75467 -6.838867,6.06038 -13.401815,12.5766 -18.754033,20.00996 -2.763286,4.03703 -4.408379,8.66941 -6.279315,13.15201 -2.324798,5.60337 -5.383692,10.84054 -8.133354,16.23335 -3.235682,6.83911 -4.860077,14.2879 -6.847189,21.55342 -2.871373,11.25504 -4.83517,22.6719 -5.999993,34.22055 -0.686413,7.62289 -0.833085,15.27887 -0.814808,22.9281 0.04376,3.8895 0.498747,7.67732 1.843402,11.33154 1.072012,3.49916 2.844295,6.68737 4.590393,9.88064 1.993067,3.96835 4.037735,7.9103 6.10933,11.83818 1.608484,3.57875 2.891577,7.27872 4.384061,10.90984 1.832378,4.27871 3.645299,8.54459 5.659322,12.74425 2.036798,4.40274 4.72549,8.39795 7.819282,12.11302 2.500928,3.13438 5.161246,6.13324 7.891898,9.06762 2.343898,2.63076 4.949848,4.96938 7.638913,7.23353 2.586766,2.06871 4.887335,4.36525 6.802299,7.0657 2.19775,3.61339 4.391695,7.22674 6.371478,10.97151 4.795637,9.23798 8.855142,18.8659 12.843801,28.47757 2.591017,5.91798 4.00979,12.84607 8.947606,17.35485 2.649534,1.70959 4.82639,1.5658 7.6641963,0.46668 5.30477624,-3.49321 -0.8624754,0.61077 -10.0264853,5.55641 -0.481592,0.2599 0.875916,-0.65693 1.298109,-1.00512 1.224751,-1.01007 2.344273,-2.13819 3.468836,-3.25569 6.8433862,-7.60356 9.132873,-7.6284 20.48718,-14.16122 4.198814,-1.39801 8.664552,-1.30565 12.989871,-2.08454 3.87116,-1.11957 6.068278,-2.20237 9.74813,-0.0144 1.846921,1.55068 3.383414,3.52704 5.979966,3.42289 2.384021,-0.30911 4.662523,-1.04188 7.036487,-1.43943 1.266698,-0.31405 2.503007,-0.65439 3.724055,-1.11283 0,0 -11.808451,9.16577 -11.808451,9.16577 l 0,0 c -1.266824,0.35981 -2.537082,0.70713 -3.834297,0.94357 -2.423343,0.49018 -4.82981,1.34768 -7.334555,1.10604 -2.542991,-0.61885 -4.281135,-2.29674 -6.27292,-3.89249 -3.118967,-1.38432 -5.903092,0.11736 -9.061683,0.70857 -4.2810097,0.63646 -8.7667432,0.60994 -12.7456545,2.50643 22.0336005,-12.95942 11.6485537,-7.57665 8.0951527,-4.38598 -1.1974299,1.0752 -2.0384378,2.45827 -3.238282,3.52991 -5.7487603,5.87193 -12.2697835,10.76301 -20.2997552,13.52028 -3.103241,0.69569 -6.057205,0.35694 -8.538803,-1.80025 -4.732346,-5.00901 -6.195522,-11.93371 -8.73866,-18.15696 -3.885518,-9.57782 -7.902781,-19.19703 -13.116624,-28.13579 -2.067432,-3.63261 -4.313263,-7.14104 -6.439608,-10.73174 -1.858343,-2.59768 -4.199417,-4.69534 -6.654636,-6.72499 -2.700625,-2.3209 -5.251077,-4.78732 -7.649127,-7.42324 -2.776697,-2.93404 -5.398381,-6.00047 -7.920274,-9.15676 -3.155216,-3.82135 -5.81403,-7.9675 -7.887295,-12.48137 -2.076225,-4.1995 -4.064785,-8.41786 -5.83916,-12.75351 -1.459167,-3.59435 -2.815081,-7.21794 -4.336004,-10.78354 -2.007388,-3.94694 -4.001199,-7.90063 -6.053988,-11.82459 -1.80692,-3.24287 -3.6977,-6.45593 -4.77497,-10.03568 -1.41132,-3.84147 -1.94983,-7.7874 -1.94394,-11.88273 0.14625,-7.75703 0.43292,-15.51496 1.1384,-23.24406 1.22159,-11.59145 3.21413,-23.04162 5.85581,-34.39629 1.846738,-7.31221 3.334253,-14.80663 6.461874,-21.70271 2.63226,-5.39053 5.774595,-10.51895 8.054334,-16.0846 1.888325,-4.58312 3.548178,-9.31806 6.256107,-13.501 5.363822,-7.69423 12.203347,-14.28196 19.116723,-20.56793 5.14779,-4.28657 10.317822,-8.54941 15.529401,-12.75841 2.809366,-2.26892 5.724032,-4.40693 8.502501,-6.71358 0.88727,-0.7366 1.7141,-1.54311 2.571151,-2.31466 2.978607,-2.99283 5.987052,-5.95912 8.857975,-9.05636 2.305536,-2.58964 4.436212,-5.31117 5.697262,-8.58486 1.379879,-3.55051 2.685665,-7.12161 4.30434,-10.57155 0.367991,-0.81061 1.238915,-2.76469 1.664487,-3.5631 1.077839,-2.02212 2.648456,-3.77928 3.277656,-6.02837 1.3136831,-3.45163 3.5584857,-6.46236 5.6373809,-9.49226 2.343458,-3.53801 4.88870369,-6.93219 7.2695012,-10.44472 2.9669099,-3.76699 5.7699049,-7.66979 8.3630029,-11.70366 2.3145,-3.58338 5.00611,-6.90768 8.468187,-9.45632 3.563311,-2.72871 7.131432,-5.449 10.907587,-7.88162 3.933551,-2.2673 12.437909,-8.59156 18.936797,-9.94331 2.154211,-0.44806 4.356272,-0.34845 6.534272,-0.21136 4.332688,0.27797 8.643639,0.78372 12.906311,1.62388 1.109575,0.14796 2.244551,0.36139 3.373706,0.29462 0.422925,-0.025 1.608121,-0.4458 1.252615,-0.21535 -21.611956,14.00942 -13.784545,8.98744 -10.092325,5.71885 1.616979,-2.30251 2.556272,-5.00889 3.948146,-7.44985 1.739435,-3.01776 3.372583,-6.11338 5.364265,-8.96676 2.103202,-3.14026 3.963968,-6.43161 5.703207,-9.78572 1.574312,-3.14253 2.619722,-6.53953 4.761963,-9.37369 1.92253,-2.42291 3.930844,-4.76917 6.113292,-6.96545 5.551887,-5.17039 12.795531,-10.41495 20.573521,-9.34498 4.18774,0.78006 8.07113,2.48636 11.59683,4.88738 5.62256,3.76808 10.87539,8.02358 16.37025,11.96605 1.34985,0.66173 2.10844,1.2735 3.61088,1.25839 0.45156,-0.005 1.7016,-0.53919 1.32253,-0.29377 -28.31666,18.33318 2.24383,-3.59233 4.841,-3.08414 8.43624,-3.95336 17.54858,-5.82689 26.51989,-8.17647 13.00437,-3.46445 26.07311,-6.68358 39.01421,-10.38141 5.49931,-1.3026 11.17468,-2.7556 16.71484,-0.87649 3.20056,1.22249 6.38005,2.50262 9.32848,4.2705 3.3064,1.742 6.75481,3.65882 10.56617,3.80445 5.14253,-0.50158 10.09787,-2.07851 15.05984,-3.44235 7.35512,-2.10103 14.65007,-4.43884 21.84907,-7.02331 3.87794,-1.53967 7.70912,-3.22689 11.68341,-4.5045 7.27533,-1.60817 14.84211,-1.3668 22.2423,-1.23147 22.62806,1.67056 45.18409,4.76616 67.10924,10.76999 4.84,1.4378 9.71662,2.75761 14.51999,4.3134 21.1338,6.84516 41.78343,15.86404 60.09826,28.53835 6.69256,5.03637 7.40254,5.46262 13.67284,10.57795 3.96112,3.23149 7.96442,7.56758 12.91352,9.35657 1.03502,0.37414 2.16373,0.40409 3.24559,0.60614 11.12938,-0.67315 21.87492,-4.44027 32.54624,-7.38331 13.80034,-4.7674 27.3743,-10.11205 40.3901,-16.7698 2.12874,-1.09472 4.27037,-2.16472 6.38621,-3.28416 4.06992,-2.1533 12.65631,-7.05498 0.0108,0.3123 -1.78727,1.04126 3.54665,-2.12978 5.32706,-3.18275 16.91997,-10.00688 11.52974,-6.92422 21.12195,-12.35063 5.56775,-2.7768 11.27195,-5.59361 17.61589,-5.79128 12.00146,-0.15841 23.99469,0.87803 35.98197,1.27607 22.41914,1.30676 44.90858,2.78555 66.95566,7.30809 6.8239,1.77168 16.17275,3.54644 21.73477,8.27906 1.32743,1.12949 2.20249,2.70936 3.12465,4.14575 0.84466,1.98144 0.70971,1.49804 1.28418,3.44498 0.26002,0.88121 0.36508,2.27449 0.82291,3.09632 0.0623,0.11181 0.20069,0.15889 0.30103,0.23834 4.38526,0.17406 13.91838,-7.53226 -9.45915,6.40651 -0.67787,0.40418 1.35992,-0.80217 2.02282,-1.23046 1.39987,-0.90444 2.72737,-1.918 4.14856,-2.79078 7.74957,-4.63384 15.35063,-10.62947 24.49081,-11.95945 7.13054,-0.30275 14.22884,0.64462 21.21999,2.01321 1.90202,0.4324 3.81931,0.80244 5.70607,1.29721 11.64354,3.05331 22.87913,8.0048 32.63955,15.07425 5.25277,4.0246 6.91285,5.152 11.83262,9.48023 6.87827,6.05125 13.11609,12.76451 19.41738,19.39908 6.1828,6.84817 12.28242,13.80775 17.44464,21.47675 2.49085,3.90408 4.53898,8.01171 6.29456,12.29714 1.5967,3.50755 3.32248,6.97924 4.57634,10.62582 1.09477,3.58632 2.36666,7.16163 2.79979,10.90438 0.3355,3.52308 0.97991,6.99608 2.06014,10.37356 0.83793,3.1702 1.89554,6.26805 2.84828,9.40389 1.06861,3.66658 0.96177,7.54678 1.05702,11.33503 0.24878,7.67257 0.64755,15.34674 1.56079,22.9728 0.54823,5.2629 0.31238,10.55911 0.32376,15.84544 -0.12476,10.21272 -0.17397,20.43538 -0.83358,30.6309 -0.432,5.26371 -0.50497,7.32359 -1.31666,12.54347 -1.39006,8.93939 -3.87619,17.65922 -7.36377,26.00792 -0.95432,2.28713 -1.82045,4.61309 -2.86296,6.86139 -5.56624,12.00432 -13.33351,22.7899 -20.84385,33.61699 -3.77609,4.93761 -5.14003,7.0802 -9.52642,11.43065 -7.41923,7.35844 -12.09932,9.15337 -22.98801,15.51858 -2.0978,1.22632 -4.27518,2.32045 -6.49074,3.31838 -2.38029,1.07213 -4.85411,1.92316 -7.28116,2.88474 -2.69416,0.76656 -5.35937,1.64332 -8.08247,2.29969 -14.76408,3.55871 -29.98575,4.07758 -45.0996,3.59228 -12.88695,-0.25828 -25.82763,-0.44134 -38.58212,-2.512 -7.7761,-1.18756 -15.51249,-3.10727 -23.42614,-2.92515 -4.34036,0.18783 -8.73544,0.38617 -12.88321,1.8096 -4.26979,1.50901 -8.37785,3.44117 -12.6585,4.92654 -15.75543,5.32718 -31.7256,10.0116 -47.55604,15.10779 -22.58529,6.94184 -45.0711,14.2638 -68.06818,19.76453 -17.1463,4.33924 -34.34757,8.78319 -51.93217,10.95024 -7.04002,0.79644 -8.65739,1.09648 -15.72504,1.43055 -10.02012,0.47363 -20.05841,0.053 -30.08078,-0.0671 -13.1071,-0.42803 -26.22943,-1.06904 -39.21752,-2.98992 -8.38472,-1.1869 -16.7524,-2.50438 -25.04531,-4.23076 -5.54883,-1.32709 -11.05762,-2.79429 -16.59059,-4.17687 -4.79299,-0.79491 -9.60146,-1.51746 -14.47406,-1.03777 -4.43291,0.29263 -8.85683,0.77122 -13.04293,2.36801 -1.91894,0.68404 -3.84066,1.34494 -5.67076,2.24951 -0.56707,0.28029 -2.21687,1.21868 -1.67285,0.89593 13.73424,-8.14805 14.01802,-8.36359 9.03103,-5.17739 -4.52614,3.0063 -9.06586,5.9926 -13.50324,9.13007 -4.68369,3.26176 -8.58902,6.92354 -12.40127,11.16697 -3.71256,4.10495 -6.96977,8.6056 -10.83981,12.57438 -3.46902,3.6799 -7.16072,7.0826 -11.23721,10.09074 -6.52804,5.31568 -14.17619,9.4873 -22.17259,12.1396 -3.1243,0.82235 -6.26328,1.25591 -9.5032,0.97769 -3.75955,-0.11105 -7.54414,-0.25367 -11.2261,-1.09204 -4.09545,-1.00651 -8.05924,-2.45467 -12.09976,-3.65305 -5.20667,-1.31219 -10.39286,-2.71194 -15.50921,-4.34531 -4.11792,-1.07993 -8.30142,-1.72285 -12.50719,-2.36008 -3.54913,-0.54151 -7.0399,-0.50465 -10.57604,0.21335 -3.58337,0.66939 -7.15418,1.44825 -10.61173,2.61916 -3.08279,0.81676 -6.21532,1.43872 -9.30213,2.24405 -3.26484,0.80429 -6.61753,1.44862 -9.51723,3.25075 22.65135,-13.1223 7.08641,-4.38594 2.19321,-0.77712 -7.08203,5.16554 -14.76404,9.68056 -22.95456,12.82809 -3.93397,1.57095 -7.93481,2.95799 -11.89308,4.46316 -2.07578,1.03755 -1.03443,0.50074 -3.08694,1.59206 -0.51369,0.27314 -2.04258,1.11429 -1.54114,0.81928 24.37882,-14.34236 4.22116,-1.97488 -4.40204,2.30631 -3.33632,1.28211 -6.77816,2.21931 -10.24195,3.09368 -3.18423,0.8048 -6.39017,1.23298 -9.68391,1.06508 -2.59102,-0.005 -5.18201,2.5e-4 -7.77302,-0.007 -3.38014,-0.004 -6.76026,-0.0141 -10.14041,-0.019 -3.33661,-0.0107 -6.681018,-0.004 -10.006237,-0.3165 -3.146552,-0.36898 -6.247621,-1.00692 -9.386787,-1.43064 -3.541672,-0.68341 -7.008794,-1.67563 -10.449355,-2.75382 -2.754424,-0.96957 -5.49713,-1.95603 -8.272296,-2.86715 -3.583769,-1.37385 -7.056556,-3.01166 -10.541262,-4.61543 -3.845059,-1.76966 -7.812771,-3.26833 -11.583123,-5.20481 -2.981951,-1.56823 -4.958817,-3.737 -6.721909,-6.60819 -1.958303,-3.01599 -3.772318,-6.10359 -5.391408,-9.31665 0,0 12.989985,-7.49206 12.989985,-7.49206 z"
       inkscape:connector-curvature="0" />
    <text
       xml:space="preserve"
       style="font-style:normal;font-weight:normal;font-size:30px;line-height:125%;font-family:sans-serif;letter-spacing:0px;word-spacing:0px;fill:#000000;fill-opacity:1;stroke:none;stroke-width:1px;stroke-linecap:butt;stroke-linejoin:miter;stroke-opacity:1"
       x="357.59402"
       y="117.97112"
       id="text6454"
       sodipodi:linespacing="125%"><tspan
         sodipodi:role="line"
         id="tspan6456"
         x="357.59402"
         y="117.97112">the cloud</tspan></text>
  </g>
</svg>
